<svg width="16" height="16" viewBox="0 0 16 16" fill="none" xmlns="http://www.w3.org/2000/svg">
<path d="M8.00022 0.361328C10.0757 0.361328 10.3347 0.368967 11.149 0.407161C11.9625 0.445356 12.5163 0.572925 13.0037 0.76237C13.5079 0.956398 13.9326 1.21918 14.3573 1.64313C14.7457 2.025 15.0463 2.48692 15.2381 2.99674C15.4267 3.48334 15.5551 4.03792 15.5933 4.85147C15.6292 5.66577 15.6391 5.92473 15.6391 8.00022C15.6391 10.0757 15.6315 10.3347 15.5933 11.149C15.5551 11.9625 15.4267 12.5163 15.2381 13.0037C15.0468 13.5138 14.7462 13.9758 14.3573 14.3573C13.9753 14.7456 13.5134 15.0461 13.0037 15.2381C12.5171 15.4267 11.9625 15.5551 11.149 15.5933C10.3347 15.6292 10.0757 15.6391 8.00022 15.6391C5.92473 15.6391 5.66577 15.6315 4.85147 15.5933C4.03793 15.5551 3.48411 15.4267 2.99674 15.2381C2.48672 15.0467 2.02472 14.7461 1.64313 14.3573C1.25462 13.9755 0.954054 13.5136 0.76237 13.0037C0.572925 12.5171 0.445356 11.9625 0.407161 11.149C0.371259 10.3347 0.361328 10.0757 0.361328 8.00022C0.361328 5.92473 0.368967 5.66577 0.407161 4.85147C0.445356 4.03716 0.572925 3.48411 0.76237 2.99674C0.953523 2.4866 1.25416 2.02456 1.64313 1.64313C2.02483 1.25449 2.48679 0.953899 2.99674 0.76237C3.48411 0.572925 4.03716 0.445356 4.85147 0.407161C5.66577 0.371259 5.92473 0.361328 8.00022 0.361328ZM8.00022 4.18077C6.98724 4.18077 6.01575 4.58318 5.29946 5.29946C4.58318 6.01575 4.18077 6.98724 4.18077 8.00022C4.18077 9.0132 4.58318 9.98469 5.29946 10.701C6.01575 11.4173 6.98724 11.8197 8.00022 11.8197C9.0132 11.8197 9.98469 11.4173 10.701 10.701C11.4173 9.98469 11.8197 9.0132 11.8197 8.00022C11.8197 6.98724 11.4173 6.01575 10.701 5.29946C9.98469 4.58318 9.0132 4.18077 8.00022 4.18077ZM12.9655 3.9898C12.9655 3.73656 12.8649 3.49368 12.6858 3.31461C12.5068 3.13554 12.2639 3.03494 12.0106 3.03494C11.7574 3.03494 11.5145 3.13554 11.3354 3.31461C11.1564 3.49368 11.0558 3.73656 11.0558 3.9898C11.0558 4.24305 11.1564 4.48592 11.3354 4.66499C11.5145 4.84406 11.7574 4.94466 12.0106 4.94466C12.2639 4.94466 12.5068 4.84406 12.6858 4.66499C12.8649 4.48592 12.9655 4.24305 12.9655 3.9898ZM8.00022 5.70855C8.60801 5.70855 9.1909 5.94999 9.62067 6.37976C10.0504 6.80953 10.2919 7.39243 10.2919 8.00022C10.2919 8.608 10.0504 9.1909 9.62067 9.62067C9.1909 10.0504 8.60801 10.2919 8.00022 10.2919C7.39243 10.2919 6.80954 10.0504 6.37976 9.62067C5.94999 9.1909 5.70855 8.608 5.70855 8.00022C5.70855 7.39243 5.94999 6.80953 6.37976 6.37976C6.80954 5.94999 7.39243 5.70855 8.00022 5.70855Z" fill="#1C2436"/>
</svg>
