<svg width="14" height="17" viewBox="0 0 14 17" fill="none" xmlns="http://www.w3.org/2000/svg">
<path d="M11.8614 12.0977L7 16.959L2.13861 12.0977C1.17714 11.1362 0.522365 9.91116 0.257098 8.57754C-0.00816844 7.24393 0.127984 5.8616 0.648339 4.60536C1.16869 3.34912 2.04988 2.2754 3.18047 1.51997C4.31105 0.764538 5.64026 0.361328 7 0.361328C8.35975 0.361328 9.68895 0.764538 10.8195 1.51997C11.9501 2.2754 12.8313 3.34912 13.3517 4.60536C13.872 5.8616 14.0082 7.24393 13.7429 8.57754C13.4776 9.91116 12.8229 11.1362 11.8614 12.0977ZM7 10.2918C7.81039 10.2918 8.58758 9.9699 9.16061 9.39687C9.73363 8.82384 10.0556 8.04665 10.0556 7.23627C10.0556 6.42588 9.73363 5.64869 9.16061 5.07566C8.58758 4.50264 7.81039 4.18071 7 4.18071C6.18962 4.18071 5.41243 4.50264 4.8394 5.07566C4.26637 5.64869 3.94445 6.42588 3.94445 7.23627C3.94445 8.04665 4.26637 8.82384 4.8394 9.39687C5.41243 9.9699 6.18962 10.2918 7 10.2918ZM7 8.76405C6.59481 8.76405 6.20621 8.60308 5.9197 8.31657C5.63319 8.03006 5.47223 7.64146 5.47223 7.23627C5.47223 6.83108 5.63319 6.44248 5.9197 6.15597C6.20621 5.86945 6.59481 5.70849 7 5.70849C7.40519 5.70849 7.79379 5.86945 8.0803 6.15597C8.36682 6.44248 8.52778 6.83108 8.52778 7.23627C8.52778 7.64146 8.36682 8.03006 8.0803 8.31657C7.79379 8.60308 7.40519 8.76405 7 8.76405Z" fill="#ACB4C3"/>
</svg>
