<svg width="16" height="14" viewBox="0 0 16 14" fill="none" xmlns="http://www.w3.org/2000/svg">
<path d="M15.7626 2.15428C15.1795 2.41224 14.561 2.58166 13.9278 2.65692C14.5952 2.25774 15.0948 1.6295 15.3333 0.88928C14.7069 1.26206 14.0202 1.52331 13.3044 1.66463C12.8237 1.15021 12.1864 0.809044 11.4917 0.694172C10.797 0.579299 10.0838 0.697155 9.46305 1.02942C8.84226 1.36168 8.34863 1.88973 8.05891 2.53148C7.76918 3.17323 7.6996 3.89272 7.86097 4.5781C6.59071 4.51443 5.34803 4.18433 4.21362 3.60923C3.07921 3.03413 2.07843 2.22689 1.27625 1.23991C0.992304 1.72761 0.84309 2.28202 0.843888 2.84636C0.843888 3.954 1.40764 4.93254 2.26472 5.50546C1.75751 5.48949 1.26145 5.35251 0.817916 5.10595V5.14567C0.818069 5.88336 1.07334 6.59829 1.54044 7.16925C2.00754 7.74022 2.65773 8.13207 3.38076 8.27838C2.90991 8.40597 2.41621 8.42478 1.93701 8.33337C2.14087 8.96834 2.5382 9.52367 3.07337 9.92158C3.60854 10.3195 4.25475 10.5401 4.92153 10.5525C4.25884 11.0729 3.50007 11.4577 2.68859 11.6847C1.87711 11.9117 1.02885 11.9766 0.192291 11.8755C1.65262 12.8147 3.35257 13.3133 5.08882 13.3116C10.9654 13.3116 14.1791 8.44338 14.1791 4.22136C14.1791 4.08386 14.1753 3.94483 14.1692 3.80886C14.7947 3.35677 15.3346 2.79673 15.7634 2.15504L15.7626 2.15428Z" fill="#1C2436"/>
</svg>
